<?xml version="1.0" encoding="utf-8"?>
<!-- Generator: Adobe Illustrator 23.0.1, SVG Export Plug-In . SVG Version: 6.00 Build 0)  -->
<svg version="1.1" id="Camada_1" xmlns="http://www.w3.org/2000/svg" xmlns:xlink="http://www.w3.org/1999/xlink" x="0px" y="0px"
	 viewBox="0 0 1080 1080" style="enable-background:new 0 0 1080 1080;" xml:space="preserve">
<style type="text/css">
	.st0{display:none;fill:#fff;}
</style>
<rect x="5.8" y="-9.4" class="st0" width="1073.2" height="1082.3"/>
<g>
	<path d="M569.5,277.2c0.3-0.2,0.7-0.4,0.8-0.7c0.7-1.7,1.4-3.5,2-5.2c-1.6,0.4-3.6,0.3-4.9,1.2c-4.7,3.3-9.3,6.9-13.9,10.4
		c-3.1,2.4-4.6,2.4-7.1,0.3c7.6-8,18.5-12.5,24.4-22.5c-0.9,0.5-1.8,0.9-2.6,1.5c-6.2,4.2-12.4,8.5-18.6,12.7
		c-6.5,4.3-13.9,4.2-21.2,3.3c-0.9-0.1-2-1.4-2.4-2.4c-0.2-0.4,1.1-1.8,2-2.2c2.8-1.2,5.8-2,8.6-3.2c6.6-3,13.1-6.2,19.7-9.4
		c-0.2-0.3-0.3-0.7-0.5-1c-5.2,1.3-10.4,2.7-15.6,4c-1.8,0.4-3.6,0.9-5.4,1.1c-6.8,0.7-7,0.3-9.2-6.2c-1.7-5.3-4.1-10.4-6-15.7
		c-0.4-1.1-0.2-2.7,0.4-3.6c2.4-3.5,5.2-6.9,7.6-10.1c13.5,5.5,26.3,4.3,38.9-1.2c0-0.3,0-0.7-0.1-1c-6.3,0.5-12.5,1.4-18.8,1.5
		c-5.6,0.1-11.3-0.5-17-0.9c-1.1-0.1-2.2-0.5-3.1-1.2c-7.3-5.5-14.6-10.9-21.7-16.7c-5-4.1-9.5-8.9-14.4-13.1
		c-16.6-14.2-36.2-22-57.5-26.1c-1.7-0.3-3.4-2.4-4.2-4.1c-0.4-0.8,1.3-2.8,2.3-4c0.6-0.8,1.7-1.2,2.8-2c-1.1-0.7-2-1.3-3-1.7
		c-2.3-1-4.1-2.7-3-5c0.9-1.8,3-4,4.8-4.3c2.9-0.5,6.1,0.4,9.1,0.9c2.6,0.5,5,1.8,7.4-0.9c0.8-0.9,3.2-0.4,5-0.6
		c0,0,0.2-0.1,0.3-0.3c1.9-5.4,4-5.9,8.6-1.7c7.7,7.1,15.2,14.5,23.2,21.3c6.7,5.6,14.5,9.5,24.3,11.6c-7.4-6.3-10.7-13.6-11.9-21.9
		c-0.1-0.7-0.8-1.5-1.4-2.1c-5-5-8-11.1-9.4-18.1c-0.3-1.3-0.9-2.5-1.7-3.6c-4.4-6.2-8.8-12.1-10.6-20c-1.3-6.1-5.8-11.4-7.9-17.4
		c-2.1-5.8-3-12.1-4.4-18.2c-0.1-0.6,0.1-1.4,0.7-2.3c15.4,21.7,30.4,43.8,50.6,63c-1.1-4.7-2.2-8.4-2.8-12.2
		c-0.3-1.7,0.4-3.5,0.6-5.3c0.1-1,0.2-2.1-0.1-3.1c-1.6-5.9-3.6-11.8-5-17.7c-0.9-3.8-1.2-7.8,1.3-11.4c0.6-0.8,0.3-2.4,0.1-3.5
		c-1.3-7.7-2.8-15.3-0.2-23c0.2-0.5,0.4-0.9,1-2.3c1.7,1.7,3.8,2.9,4.4,4.6c2.3,5.8,4.3,11.7,6.3,17.7c2.3,7,4.4,14.1,6.8,21.1
		c2.2,6.6,4.2,13.4,7.1,19.7c6.3,13.9,13.1,27.5,19.7,41.3c0.1,0.2,0.4,0.3,0.5,0.4c2.5-2.6,4.9-5.3,7.4-7.9
		c3.7-3.6,7.9-3.6,12.2-1.4c8,4.2,14.9,9.8,21.1,16.4c5.4,5.9,11.6,11,17.5,16.4c1.2,1.1,2.5,2.1,3.4,3.4c0.5,0.8,0.8,2.1,0.5,3
		c-0.1,0.5-1.7,0.8-2.5,0.7c-5.2-0.8-10.4-1.7-15.6-2.5c-1.7-0.3-3.4-0.6-5.2-1c-3,9.9-7.1,19-13.1,25.2c0.9,4.3,2.3,7.4,2.1,10.3
		c-0.4,5.4-0.7,10.6,0.7,16c1.7,6.2-1.7,11.7-4.5,17.1c-0.6,1.2-0.7,2.8-0.7,4.3c0.2,4.7,0.7,9.7-3.1,13.2c-4.6,4.2-5.4,9.4-5.5,15
		c-0.1,5,0,10.1,0,15.5c1.9,0,4.5,0.1,7.1,0c6.3-0.2,12.6-0.6,18.9-0.7c3.9-0.1,7.2,1.2,9.7,4.5c0.7,0.9,1.8,1.5,2.9,2.1
		c3,1.8,3.4,4.6,1.4,7.5c-0.6,0.8-0.6,2-0.9,3c-0.6,2.4-1.1,4.9-1.6,7.4c-0.3,1.2-0.6,2.5-0.7,3.7c-0.1,1.5,0.6,3.3,0,4.4
		c-1.9,3.6,0.7,5.2,2.3,7.6c3.3,4.9,7.8,6.1,13.4,5.2c1.4-0.2,4.1,0.6,4.5,1.7c0.5,1.3-0.5,3.5-1.5,4.8c-2.4,3.1-5.2,5.9-7.8,8.8
		c2.1,4.8,5.5,9,4.8,14.8c-5.3,0-8.9-3.1-12.8-5.6c-2.7-1.8-4.5-1.7-6.4,1c-1.6,2.3-3.5,4.3-5.9,7.2c-3.7-1.5-7.9-3.2-12.7-5.2
		c-2.3,3.3-4.9,7-7.5,10.7c-5.6-4.1-3.7-10.3-5.4-15.6c-2.4,1.8-3.2,3.4-1.5,6.2c1.5,2.6,2.3,5.7,3.2,8.6c0.9,2.7-1.3,5-4.1,4.4
		c-0.8-0.2-1.6-0.2-2.9-0.4c-0.6,8.3-1.4,16.4-1.7,24.4c-0.3,6,0,12.1-0.2,18.1c-0.1,5.3,3.9,7.9,7.2,10.5
		c14.7,11.1,31.9,11.6,49.3,11.4c3.6-0.1,7.2-0.5,10.7-0.3c2.5,0.2,5.5,0.7,3.8,5c3.2,1.3,6.2,3.5,9.2,3.5c3.7,0,7.8-1.3,11.2-3
		c7.2-3.7,13.9-8.5,21.1-12.1c2.8-1.4,6.9-2,9.8-1.1c8.2,2.7,15,7.9,17.8,16.4c3,9.1,9.6,15.2,16.3,21c2.5,2.2,7.4,2.7,11.2,2.5
		c8.3-0.5,16.6-2.1,24.9-3.1c3.3-0.4,6.6-0.7,9.9-0.4c5.4,0.7,7.4,3.5,8.1,8.8c1.7,12,2.8,23.9,1.5,36c3,3.6,5.8,7.3,9.2,10.6
		c1.2,1.2,3.7,1.6,5.6,1.5c5.6-0.2,10.7,1.4,15.5,4c3.8,2,6,5.7,4.8,9.8c-2.1,6.8-3.8,13.9-7.4,19.9c-6.4,10.5-3.9,20.2,0.3,30.2
		c1.9,4.4,4.9,6.4,9.8,6c4.3-0.3,8.5,3.1,10.1,7.2c0.7,1.8,1.4,3.7,2.4,5.4c4,7.3,2.3,17.3-8.1,18.8c-21.6,3.3-40.6,13.1-58.7,24.7
		c-14,8.9-27.8,18.1-40.9,28.4c-8.6,6.8-15.8,15.5-23.4,23.5c-3.1,3.3-6,6.9-8.8,10.5c-10.1,13.3-18,27.6-20.9,44.3
		c-0.6,3.6-2,7.1-2.4,10.8c-1,7.3-0.3,13.8,6.6,18.9c5.5,4,8.1,10.7,10.2,17.2c2.8,8.6,5.3,17.3,10,25.3c2.4,4.1,2.3,9.1-0.3,14
		c-4.6-3.7-5.7-8.9-7.9-13.5c-4.9-10.5-9.8-21-14.7-31.4c-0.4-0.7-1-1.3-1.6-2.1c-2.3,1.2-2.8,2.6-1.8,4.6c2.6,5.4,5.1,11,7.8,16.3
		c4.2,8,5.9,16.7,6.9,25.5c0.2,2-0.5,4.2-1.2,6.1c-0.3,0.7-1.9,1.4-2.9,1.4c-6.4,0-10.1-3.9-13.3-11.8c-4.3-10.5-8.4-21.3-15.7-30.6
		c0,1.6-0.5,3.3,0.1,4.7c3.1,8.1,6.5,16.2,9.8,24.3c0.6,1.6,0.9,3.3,1.5,4.9c0.8,2.2,1.2,4.7-1.3,5.7c-2.7,1-4.9,0-6.3-2.9
		c-4.1-9-8.3-17.8-12.4-26.8c-1.2-2.5-2.4-5-3.6-7.5c-0.4,0.1-0.8,0.1-1.2,0.2c0.1,1.8,0,3.6,0.4,5.3c0.7,3.1,1.8,6.2,2.4,9.3
		c0.2,1-0.6,2.1-1,3.2c-1-0.3-2.3-0.4-2.9-1.1c-4.5-5.5-9.1-11.3-6.6-19c0.8-2.6,3.5-5,5.9-6.5c7.7-4.8,15.7-9.3,23.6-13.8
		c2.9-1.6,3.6-4.3,4.3-7.9c-9.1,2.8-17.1,6.2-23.4,12.5c-2.4,2.4-5,3.7-8.2,4.1c-1.3,0.2-2.5,0.7-4.7,0.5c1-1.5,1.8-3.3,3.2-4.4
		c4.8-3.9,9.7-7.5,14.6-11.1c2.7-2,5.7-3.8,3.6-8.7c-4.1,2.5-8.3,5.1-12.5,7.7c-1.7,1-3.3,2.2-5,3.1c-1,0.5-2.2,0.3-3.3,0.4
		c-0.1-1.3-0.8-3-0.2-3.8c2.5-3.1,0.5-4.4-1.7-6.1c-10.8-8.5-23.1-14.1-35.7-19.1c-5.6-2.2-11.3-4.2-16.9-6.2
		c-1.2-0.4-2.5-0.4-3.8-0.6c0,9,0.1,17.5-0.1,26.1c0,1.5-1,3-1.5,4.5c-1.7-0.9-3.5-1.6-5-2.7c-1.1-0.9-1.5-2.4-2.4-3.9
		c-2.6,1.4-4.9,3.5-7.6,4c-2.6,0.5-5.5-0.6-8.7-1.1c1.5,2,2.7,3.6,3.8,5.1c-2.2,0.5-4.4,0.9-6.5,1.4c-0.7,0.1-1.4,0.2-3.1,0.4
		c2.8,2.3,5.1,3,7.7,1.9c3.4-1.4,6.7-0.7,11,1.1c-3,2.1-5.1,4-7.6,5.4c-4,2.2-6.9,4.3-7.4,9.8c-0.4,4.1-3.5,7.9-5.6,11.7
		c-2.6,4.8-5.4,9.5-8.5,15c-0.3-2.6-0.9-5-0.7-7.3c1.2-13.4,2.8-26.7,3.9-40.1c0.7-8.3,0.5-16.6,0.8-25c0.2-4.4,0.5-8.8,0.7-13.6
		c-3.2-0.5-6.1-1.3-9-1.5c-21.5-1.5-43-3.9-64.5-4c-20.1-0.1-40.4,1.5-60.4,3.9c-21.6,2.6-43.1,6.4-64.3,10.8
		c-11.1,2.3-21.7,7.1-32.5,10.8c-2.1,0.7-4,1.8-6.1,2.5c-0.8,0.3-2,0.2-2.7-0.3c-3.6-2.6-6-5.8-7.3-10.3
		c-3.3-11.7,1.9-20.8,7.5-30.3c7.3-12.5,13.7-25.6,10.3-41.2c-2.1-10-0.9-19.9,3.8-29.2c2.4-4.7,6-7.9,10.7-10.2
		c11.7-5.8,19-15.6,24.8-27c4.8-9.6,6-20,7.3-30.4c1.9-15.8,10.3-25.6,25-31.2c11.7-4.4,22.7-10.3,31.6-19.2
		c3.8-3.8,6.5-8.9,9.1-13.8c2.5-4.8,4-10,6.2-15c5-11.5,16.1-21.1,31.1-19.5c1.2,0.1,2.9-0.6,3.6-1.6c4-5.8,6.4-12.2,6.7-19.2
		c0.3-7.7,4.1-11.4,11.6-9.9c19.6,3.8,39.5,4.2,59.3,3.3c20.5-0.9,41.1-1.4,61.3-5.7c1.4-0.3,2.8-0.7,4.2-1.5
		c-6.7,0.5-13.5,0.8-20.2,1.6c-11.3,1.4-22.5,3.3-34.1,2.9c-15.7-0.6-31.5,0-47.2-0.4c-7.3-0.2-14.7-1.2-21.9-2.3
		c-1.6-0.2-3-2.2-4.4-3.3c0.2-0.6,0.3-1.2,0.5-1.8c3.6-0.4,7.1-0.9,10.7-1.2c6.2-0.5,12.5-0.4,18.4-3.2c5.4-2.6,10.8-5.3,16.2-8
		c3.5-1.8,7.1-3.6,10.1-5.9c1.7-1.3,3.5-3.8,3.7-5.9c0.6-12,0.9-24.1,1.1-36.1c0.1-6-0.2-12-0.2-18.1c0-1.3,0-2.7,0-4.3
		c-1.3,0.3-2.4,0.6-3.4,0.8c-2.4,0.6-3.3,1.7-2.8,4.5c0.8,4.7,1,9.4,1.4,14.2c-0.5,0.3-0.9,0.6-1.4,0.9c-3.9-3.2-7.8-6.4-11.6-9.6
		c-0.5-0.4-0.8-1-1.1-1.5c-2.3-3.2-5-4.3-8.6-1.9c-1.8,1.2-4,1.8-6.1,2.7c-4.8,2-8.2,1.1-11.5-3c-1.7-2.1-3.2-4.3-4.8-6.5
		c-6,2.4-12,4.7-18.1,7.2c-0.9-5.7,1.8-9.1,4.8-11.8c4.5-4.2,5.7-8.3,2.1-13.5c-0.9-1.3-1.2-3-1.6-4.5c-0.7-2.5,0.8-4.2,2.9-2.9
		c5.3,3.1,8.2,0.4,11.3-3.5c1.9-2.4,4.1-4.4,6.5-7c-2.4-4.5-3.6-9.4,2.1-13.2c-2.2-1.8-5-3.1-5.5-5c-0.4-1.4,2.6-3.5,3.3-5.6
		c2.8-8.7,10.4-10.4,17.7-11.8c8.8-1.6,17.8-2.3,26.6-3.4c0.7-5,1.3-9.8,1.8-13.7c3.6,0,6.3,0.4,8.7-0.1c10.8-2.2,19.5-8,26.5-16.3
		c1.1-1.3,1.6-3,2.4-4.5L569.5,277.2z M818.2,638.7c-1.2-7.9-4.2-13.1-10.1-16c-3.6-1.8-7.8-3.7-10-6.7c-6.1-8.3-9.9-21.9-2-33.1
		c2.5-3.5,3.6-8.1,4.5-12.3c0.4-2.1-0.5-5-1.7-6.8c-4.3-6.2-9.8-10.6-17.9-11.5c-7.9-0.9-13.9-8.6-13.1-16.1
		c0.6-5.7,0.6-11.5,0.2-17.2c-0.4-6.6-8.7-15.3-15-17.2c-4.7-1.4-9.1-0.5-13.3,1.3c-12.6,5.3-26.5-0.6-31.5-13.4
		c-3-7.5-6.9-14.7-10.5-21.9c-2.5-4.9-10.8-9.3-14.8-7.6c-4.7,2-9.6,4-13.5,7.2c-7.6,6-16.3,9.6-24.9,13.4c-2.2,0.9-5.6,0.7-7.7-0.4
		c-2.6-1.4-0.1-3.9,0.4-5.9c0.1-0.3-0.1-0.7-0.1-1c-2.8,0-5.6,2.8-4.7,4.8c0.9,2.1,1.7,4.5,3.2,6.2c7.5,8.2,15.1,16.3,22.8,24.2
		c3,3.1,9.5,1,10.8-3.1c1.7-5.5,3.4-11.1,5.3-16.5c1.5-4.2,3.5-8.2,5.3-12.2c0.4,0.1,0.8,0.2,1.2,0.3c-0.1,0.9,0.1,1.9-0.2,2.7
		c-1.2,3-2.6,5.8-3.7,8.8c-2.4,6.5-4.6,13.1-7,20c21,0.6,40.9,2.9,59.1,12.3c2.9-4.1,2.9-4.1,5.1-3.5c-0.6,1.2-1.4,2.4-1.7,3.6
		c-0.2,0.8-0.1,2.1,0.4,2.6c4.6,4.5,9.3,8.7,13.8,13.2c2.4,2.4,5,4.9,6.7,7.8c3.4,6.1,6.5,12.4,9.4,18.7c4.1,8.9,8,18,11.7,27.1
		c0.9,2.2,1,4.8,1.1,7.2c0,0.9-1,2.6-1.5,2.6c-1,0-2.6-0.7-2.9-1.6c-1.8-4.5-3.4-9.1-4.9-13.7c-0.5-1.6-0.5-3.4-0.8-5.6
		c-1.2,0.7-1.9,1-2.4,1.4c-8.1,7.2-16.6,14-24.1,21.8c-12,12.5-23,26.1-32.3,40.8c-9.2,14.5-18.3,29.2-27,44
		c-4.2,7.2-8.9,14.6-5.9,23.7c0.2,0.6,0.2,1.4,0,1.8c-1.6,2.3-2.9,5.9-5,6.5c-3.6,1-4.6,3-5.3,6c-0.6,2.6-1.3,5.3-2.1,7.8
		c-3.6,12.2-5.1,24.8-6,37.5c1.6-4.4,3.1-8.8,4.5-13.2c3.2-9.8,6.9-19.4,13.6-27.2c6-7,12.8-13.5,19.7-19.7
		c10.3-9.3,20.8-18.5,31.6-27.2c6.4-5.2,13.2-9.8,20.3-13.9c9.8-5.7,20-10.5,29.9-15.9c8.7-4.7,17.7-8.6,27.3-10.9
		C807.3,641.4,812.8,640,818.2,638.7z M369.5,595.9c0.3-0.4,0.5-0.8,0.8-1.2c16,3.1,30.8,9.9,45.6,17c6.2-12.8,14.2-23.5,24.4-32.7
		c10.1-9.1,20.8-17.3,32-23.8c-2.2-3.9-4.3-7.5-6.4-11.3c-6.9,3.5-14.4,8.4-21.1-1.2c-4.5,1.7-9.6,4.5-13.9,1
		c-4.1-3.4-2.1-8.5-0.7-13.1c-2.1,2.6-4.1,5.3-5.4,8.2c-4.1,9.3-7.4,19-11.9,28.1c-2.1,4.2-6,7.8-9.9,10.6
		c-6.5,4.6-14.2,5.7-22.1,5.6c-4.4,0-9.5,0.3-13.2,2.3c-9.1,4.8-14.3,13-14.7,23.2c-0.4,10.3,0.3,20.7,0.9,31
		c0.6,8.9-2.1,16.2-9.7,20.9c-5.2,3.2-10.9,5.7-16.7,7.6c-10.9,3.5-17.2,14.6-15.6,27.9c0.9,7.7,1.3,15.4,1.3,23.2
		c0.1,9.5-2.8,18.2-9.3,25.4c-5,5.5-10.5,10.7-15.7,16c-3.5,3.6-3.9,6.8-1.7,10.6c1.7,2.8,4.8,3.9,9.1,2.6
		c6.2-1.9,12.5-3.7,18.5-6.1c8.8-3.5,17.2-7.8,26-11.3c3.2-1.2,3.8-2.7,3.8-5.8c0-12.8,2.6-25.2,6.6-37.3c2.3-6.9,5.4-13.5,8.5-21
		c-9.6-2-19.8-4.2-29.9-6.3c-1.5-0.3-3.6,0.1-3.2-2.3c0.1-0.6,2.4-1.3,3.6-1.1c10.4,1.8,20.8,3.7,31.1,5.8c2.1,0.4,2.9,0.1,3.8-2
		c3.4-7.5,7.2-14.8,10.9-22.2c5.6-11.2,16.5-18.4,21.5-30.1c1.5-3.5,4-6.9,8.9-6.7c0.6,0,1.4-0.9,1.8-1.6c1.5-3,2.9-6.2,4.7-9.9
		c-6.7-3.3-13.3-6.7-20.1-9.8c-6.5-2.9-13.2-5.3-19.8-8C371,597.5,370.3,596.6,369.5,595.9z M710,556.3c0.2,0.3,0.5,0.5,0.7,0.8
		c-0.6,1.4-1.1,2.9-1.8,4.3c-7.3,15.2-15.3,30.1-21.6,45.6c-8.6,20.9-16,42.3-23.7,63.6c-2.5,6.8-0.2,16,4.7,21.8
		c1.6-3.5,2.8-7.1,4.8-10.3c9.9-15.7,19.3-31.9,30.4-46.7c16.4-22,33.4-43.7,57.1-58.8c1.5-1,2.2-2.1,1.2-4
		c-4.2-8.1-7.9-16.4-12.4-24.3c-5.1-8.9-14.5-13.3-22-20c-3.6,6.3-6.8,12.2-10.3,18c-0.5,0.8-1.8,1.8-2.3,1.6
		c-0.8-0.3-1.8-1.5-1.9-2.4c-0.1-1.3,0.4-2.7,0.9-3.8c2.7-5.8,5.7-11.4,11.7-14.3c-18.2-11.1-37.9-13.1-59.2-11.4
		c3.4,3.6,6.1,6.5,9.2,9.7c-3.3,1.5-6,2.8-8.8,4.1c0.2,0.4,0.5,0.9,0.7,1.3c2.9,5.1,2,7.5-3.3,9.6c-1,0.4-2.1,1.6-2.5,2.7
		c-1,2.2-1.7,4.6-2.2,7c-4.1,19.2-8,38.5-12.2,57.7c-0.6,2.7-0.1,3.4,2.6,2.9c5.9-1.2,8.1,0.9,8,6.9c-0.1,6.6-0.2,13.3,0.2,19.9
		c0.3,4,1.5,7.9,2.4,11.8c0.5,0,0.9-0.1,1.4-0.1c0.8-2.3,1.4-4.6,2.3-6.9c4.6-11.7,9.8-23.1,13.9-34.9c6.4-18.2,17.5-33.4,28.9-48.6
		C707.6,557.7,708.9,557.1,710,556.3z M347.9,753.2c1.2,0,1.8,0.1,2.4,0c8-1.4,15.9-3.6,23.9-4.3c16.1-1.3,32.4-2.4,48.5-2.6
		c13.3-0.1,26.6,1.2,39.9,1.8c20.8,0.9,41.5,3.3,62,7c3.7,0.7,3.9-0.7,3.9-3.6c0-5.3,0.1-10.6,0.4-15.9c0.1-1.4,0.8-2.7,1.2-4
		c0.4-0.2,0.9-0.5,1.3-0.7c2.9,3.3,5.5,6.9,8.8,9.8c6.3,5.5,13.1,10.3,21,13.5c1.4,0.5,2.2,3,3,4.7c0.4,0.9,0.2,2.1,0.2,2.5
		c9.4,3.3,18.3,6.5,27.3,9.6c-2.3-1.6-4.8-2.9-7.2-4.3c-7.6-4.6-15.2-9.1-22.7-13.8c-2.4-1.5-6.4-2-5.1-6.6c0.2-0.5-0.8-1.4-0.9-1.4
		c-2.1,1-3.5,2.1-4.8,2c-0.9,0-1.7-1.7-2.5-2.7c1.1-0.7,2.2-1.4,3.1-1.9c-5-4.3-10.2-8.7-15.4-13c-3.4-2.8-5.6-6.1-5.6-10.7
		c0-4.2,0-8.5,0-12.7c-6.4,8.5-10.7,18-19.9,24.2c6.1,2.7,11.7,5.1,18.2,8c-3.8,2.2-6.6,0.6-9.2-0.1c-6.5-1.8-12.9-3.9-19.5-5.6
		c-7.5-2-15-3.7-22.5-5.6c-14.1-3.5-28.1-6.9-42.2-10.5c-10.5-2.7-21-5.1-31.3-8.3c-11.1-3.4-22.1-7.5-33.1-11.6
		c-2.6-1-3.9-0.5-5.3,1.9c-7.9,13.3-12.9,27.6-16.2,42.6C348.7,744.9,348.5,749,347.9,753.2z M517,162.4c-0.1,0.3-0.1,0.6-0.2,1
		c-1,0-2.1,0-3.1,0c-1,0.1-2.2,0-2.9,0.5c-0.4,0.3-0.2,1.9,0.2,2.6c2.1,3.5,4.5,6.9,6.6,10.5c0.7,1.2,1.2,2.6,1.7,3.9
		c1.3,4,2.2,8.1,5.9,10.8c4,2.9,8,5.6,11.9,8.6c1,0.8,1.4,2.3,2.1,3.4c-1.1,0.3-2.3,1.2-3.3,1c-9.3-2.5-16.6-7.7-21.5-16.2
		c-0.5-0.8-1.7-1.4-2.7-1.8c-1.1-0.4-2.5-0.3-3.6-0.7c-11.6-4.2-21.8-10.7-31.1-18.7c-4.2-3.5-8.5-6.8-13.3-10.7
		c-0.5,2.3-0.7,3.5-0.9,4.2c-7.7-2-15.3-4-22.8-6c-0.2,0.4-0.4,0.8-0.5,1.3c1.4,1.1,2.6,2.5,4.1,3.3c4.5,2.2,4.7,2.5,1.9,6.9
		c0.5,0.3,1,0.8,1.6,0.9c17,3.8,31.4,12.6,45.2,22.7c4.1,3,7.5,7.2,11.5,10.3c10.5,8.2,21.9,14.8,34.6,19.2
		c15.5,5.4,31.4,1.6,41.2-11.3c4.1-5.4,8.4-11,9.5-18.1c0.7-4.9,2-5.9,6.9-4.4c3.4,1,6.7,2.2,10.1,3.3c0.2-0.3,0.4-0.6,0.7-0.9
		c-0.5-0.3-1.2-0.4-1.6-0.8c-6.5-5.3-12.8-10.7-19.3-16c-2.3-1.8-4.7-3.8-7.4-4.8c-9.3-3.5-12.1-3.2-17.8,4.5
		c-3.3,4.5-3.2,4.6,0.9,7.6c2,1.4,2.5,3.3-0.1,5.3c-27.5-21.9-56-42.5-77.5-71.4c0.4,6.1,4.2,14.1,8.3,19.5c1.9,2.5,2.9,5.8,4.3,8.7
		c1.1,2.3,1.7,5.1,3.3,6.8c4.1,4.2,8.8,7.9,13.2,11.8C514.4,160.3,515.7,161.3,517,162.4z M453.5,631.8c-0.1-1.2-0.1-2.3-0.3-3.4
		c-0.6-3.1,0.4-4.9,3.7-5.4c4.4-0.6,8.7-1.7,13-2.2c12.1-1.2,24.3-2.1,35.9-6c4.7-1.6,9.4-3,13.9-4.9c3.7-1.6,4.1-4.5,1.8-7.7
		c-2.9-4-5.5-8.2-8.4-12.1c-6.5-8.8-13.2-17.4-19.8-26.1c-1.2-1.6-2.5-2.4-5-2c-2,0.4-4.5-0.2-6.2-1.4c-2.1-1.4-3.4-1.3-5.5,0.1
		c-14.8,10.1-28.7,21.3-40.2,35.1c-5.1,6.1-10,12.3-14.9,18.3C432.5,620.1,442.9,625.9,453.5,631.8z M619.4,542.4
		c-0.3,0.5-0.7,1-0.8,1.6c-0.6,3.8-2.7,5.1-6.5,4.8c-2.6-0.2-5.2-0.5-7.5,1.8c-1,1-3.4,1.3-4.9,0.9c-3.1-0.9-6.1-2.5-8.7-3.7
		c-1.3,2.3-2.9,5-4.3,7.8c-0.6,1.1-1.1,2.7-0.8,3.8c4.8,16.5,9.7,33,14.8,49.5c0.4,1.4,2,3,3.4,3.5c9.4,3.5,19,3.2,28.8,1.8
		c8.4-1.1,7.2-0.3,7.3-7.5c0-1,0.2-2,0.3-2.9c1.3-13.8,6.1-26.7,10.1-39.9c2.3-7.6,4.5-15.3,6.5-22c-7.8-4.6-15-8.9-22.4-13.3
		c0.2,1.6,0.3,3.3,0.6,5c1.2,7.6-4.5,12.8-11.7,10.4C622.2,543.6,620.9,543,619.4,542.4z M417.9,619.1c-1.8,2.6-3.5,4.4-4.2,6.5
		c-1.5,4.4-4.5,7.4-8.1,10.1c-2,1.5-4.3,3.6-4.8,5.8c-1.2,6-4.7,10.4-8.9,14.1c-10.7,9.3-15.3,22.4-22.1,34.4
		c16.5,4.1,32.7,8.1,48.3,11.9c0.4-2.2,0.5-4.4,1.3-6.2c4.7-9.9,11.9-17.9,19.5-25.8c4-4.2,10.2-6.5,11.9-12.7
		c1.2-4.6,2.1-9.3,2.7-14c0.2-1.2-0.8-3.2-1.8-3.8C440.6,632.8,429.4,626.1,417.9,619.1z M650.6,618c-7,0.6-13.5,1.2-20,1.7
		c-11,0.9-22.1,1.7-33.1,2.7c-8.3,0.7-16.6,2.1-25,2.5c-16.1,0.7-32.3,1.1-48.4,1.4c-20.1,0.4-40.2,0.7-60.3,1.1
		c-1.6,0-3.3,0.4-4.8,0.7c0.4,5,0.8,9.4,1.2,14.1c6.5-2.3,10.4-7.1,14.1-13.6c1.4,3.6,2.4,6.2,3.3,8.7c1.6,4.7,4.7,8.5,9.7,8.2
		c4.4-0.3,8.7-2.3,12.8-4.1c2.9-1.3,4.7-3.8,4.8-7.3c0-0.7,1.3-1.4,2.1-2.1c0.7,0.8,1.6,1.6,2,2.5c1,2.2,1.2,4.9,2.6,6.7
		c5.5,7.1,10.7,8.2,19.1,4.4c4.4-2,9.1-3.7,8.9-9.9c0-0.6,1.3-1.7,1.4-1.6c0.9,0.5,1.9,1.1,2.4,1.9c1.7,3.1,3,6.5,4.8,9.5
		c1.7,3,4.5,4.5,8.1,4.1c5.4-0.7,13.5-8.7,14.3-14.1c0.2-1.3,0.9-2.5,1.4-3.8c1.4,1,3.4,1.8,4,3.2c3.2,6.9,8.8,10.7,15.9,10.7
		c8.3,0,15.6-3,19-11.9c0.7-2,2.2-3.7,3.3-5.5c1.6,1.4,3.5,2.6,4.8,4.2c5.6,7.6,18.1,7.2,23.7,2.6
		C647.7,631.1,649.5,624.8,650.6,618z M552.5,497.9c-4.6,0.6-9.1,1.1-13.7,1.7c0.1,0.3,0.2,0.8,0.4,1.2c0.2,0.6,0.5,1.1,0.8,1.7
		c5.9,12.5,8.3,25.7,6.3,39.4c-0.9,5.9-2.8,12.3-6.2,17c-3.2,4.4-5.6,8.2-4.7,13.7c0,0.2,0,0.5,0,0.7c0,5.6,0,11.2,0,16.8
		c6.9-0.9,13-1.7,19.8-2.5C554.4,557.5,553.5,527.8,552.5,497.9z M498.4,556.9c9.4,13.7,18.7,27.1,27.7,40.1c2-0.4,3.8-0.9,5.6-1
		c8.7-0.2,17.5-0.3,26.2-0.5c0.9,0,1.8-1.2,2.6-1.8c-0.2-0.4-0.4-0.8-0.6-1.1c-7.6,0.5-15.2,1-22.8,1.5c-8.2,0.6-8.1,0.4-7.2-8.1
		c0.7-7.1,0.2-14.2,0.1-21.4c0-0.8-0.6-1.7-1.2-2.4c-1.9-2.4-4.4-4.4-5.6-7.1c-2-4.4-3.1-9.2-4.6-14.2c-3.8,1.6-8.4,2.7-11.8,5.4
		C503.3,549.1,501,553.5,498.4,556.9z M533.8,381.5c0,20.8,0,41,0,61.4c5.8,0,11.3,0,16.8,0c2.6,0,3.7-0.9,3.6-3.7
		c-0.4-9.9-0.5-19.7-0.6-29.6c-0.1-6.3,0-12.7,0-19.3c-0.8,0.5-1.7,0.9-2.4,1.5c-2.9,2.2-5.7,4.8-8.8,6.7c-1.2,0.8-3.4,0.4-5-0.1
		c-0.5-0.2-0.6-2.6-0.3-3.8c0.8-3.3,2-6.5,3-9.9C538.2,383.8,536.5,382.9,533.8,381.5z M623.1,784.5c0.3-0.3,0.5-0.6,0.8-0.9
		c-17-20.3-35-39.6-53.4-58c-2.6,2-4.8,3.6-6.8,5.2c0,4.1,0,8.2,0,12.4c0,3.5,1,5.7,4.7,7.7c11.5,6.2,22.7,13.2,33.9,20
		C609.4,775.2,616.2,779.9,623.1,784.5z M567.2,551.8c-0.4,0.2-0.8,0.4-1.2,0.5c1,8,2.1,16,3.1,23.9c0.4,2.9,1,5.8,1.1,8.8
		c0.1,6.9-0.1,7-6.9,7.4c-0.3,0-0.6,0.3-0.9,0.4c-0.1,0.3-0.1,0.6-0.2,1c1.3,0.4,2.6,0.8,3.9,1.1c2.1,0.5,5,0.2,6.3,1.5
		c4.5,4.9,10.1,8.2,16,10.9c2.1,1,4.5,1.6,7,2.5c0-1,0.1-1.3,0-1.7c-4.7-15.3-9.4-30.5-14.1-45.8c-0.8-2.8-1.6-5-5.2-5.5
		c-2-0.3-3.8-2.2-5.6-3.4C569.4,553,568.3,552.4,567.2,551.8z M575.1,617.7c-3.7-4.9-7.4-9.7-11.7-15.4c0,3,0,4.9,0,7.4
		c-1.2-0.3-2.5-0.5-3.6-1c-0.3-0.1-0.4-1.6-0.1-2c2.7-3.4,0.2-3.9-2.3-4.2c-1.9-0.3-3.9-0.3-5.9-0.3c-4.7,0-9.3,0-14,0.2
		c-0.8,0-1.9,0.5-2.3,1.1c-5.6,7.7-13.7,11.7-22.2,15.1c-1.2,0.5-2.4,0.9-3.6,1.3C531.4,621.8,553.2,620.4,575.1,617.7z
		 M563.2,469.4c-0.1-0.5,0-0.9-0.2-1.2c-2.7-4.7-5.5-9.3-8.4-13.9c-0.4-0.7-1.9-1-2.8-1c-5.9-0.1-11.8,0-17.8,0.1
		c-1.4,0-3,0.5-4,1.3c-8.1,6.8-17.6,10.5-27.8,12.8c-1.3,0.3-2.6,0.9-3.8,1.3C520.1,471.9,541.6,472.3,563.2,469.4z M549.8,168.8
		c-6.8-14.8-14.4-29.8-20.5-45.4c-6.2-15.7-10.9-31.9-16.3-47.9c-0.3,0-0.5,0.1-0.8,0.1c1.8,9.8,3.7,19.7,5.5,29.5
		c-0.3,0.1-0.7,0.2-1,0.3c-1-1.1-1.9-2.1-2.9-3.2c-0.3,0.1-0.7,0.3-1,0.4c2.1,6.2,4.2,12.5,6.4,18.7c0.3,0.9,1.3,2.1,1,2.7
		c-2.2,3.9,0.5,7.2,1.6,10.5c2.7,8.2,4.8,16.7,13,22C540.3,160.2,545.1,165,549.8,168.8z M628.4,768.3c0.2-0.1,0.5-0.2,0.7-0.3
		c-0.5-1.6-0.9-3.2-1.4-4.8c-1-3-2.2-6-3-9.1c-5.2-18.5-7.7-37.6-14.1-55.8c-2.9-8.3-3.8-17.1-3.2-26.1c0.1-1.8-1.7-5-3.2-5.4
		c-2.3-0.7-5.1,0.5-7.7,0.9c0.1,0.7,0.1,1,0.2,1.2c7.1,11,12.4,22.6,11.4,36.1c-0.4,6-0.6,12.2-4.9,17c-2,2.3-1.5,3.9,0,6.1
		c5.1,7.8,10.2,15.7,15.2,23.6C621.7,757.3,625,762.8,628.4,768.3z M572.9,686.1c0.4,5.4,1.1,10.9,1,16.3c-0.1,4.9-1.1,9.8-1.4,14.7
		c-0.1,1.2,0.5,3,1.4,3.7c11,8,19.4,18.5,28.3,28.5c8.2,9.3,15.5,19.4,23.3,29.1c0.7,0.8,1.4,1.6,2.2,2.3
		c-9.2-17.1-19-33.7-28.8-50.3c-1.2-2-2.3-3.3-4.9-3.8c-1.9-0.4-4.3-2-5.1-3.7c-2.7-5.4-5.8-10.8-6.8-16.6
		C580.7,698.5,575.8,692.8,572.9,686.1z M528.8,501.9c-2.2,11.5-7.1,22.3-4.7,34.3c1.1,5.6,1.3,11.4,5.9,15.9
		c3.5,3.4,5.2,3.5,7.9-0.6c3.4-5.1,3.7-10.9,4.2-16.6c0.3-3.4,0.1-6.8,0.1-10.2c-0.3,0-0.7-0.1-1-0.1c-1,8.8-2.2,17.5-8,24.8
		c-0.1-1.9,0.2-3.7,0.8-5.4c1.2-3.3,3.5-6.6,3.7-10c0.5-8.5,0.3-17.2-0.1-25.7c-0.2-3.1-1.5-6.4-6-5.6
		C531,502.8,530.2,502.4,528.8,501.9z M609.9,537.4c2.5-4.8,1.6-9.5,0-13.3c-4.9-12-11.7-22.7-22-30.7c-1.3,0.6-2,1-2.8,1.3
		c-0.7,0.4-1.5,0.7-2.2,1.1c2.1,16.3,8.5,30.4,19.3,42.5c1.8,2.1,4.4,3.6,6.9,4.9c1.1,0.6,3,0.4,4.1-0.2c0.6-0.3,0.4-2.2,0.4-2.3
		c-2.7-0.7-5.2-0.6-6.5-1.7c-3.6-3.1-7.4-6.4-9.8-10.3c-3.7-6-6.4-12.7-9.4-19.2c-1.1-2.5-1.9-5.2-2.8-7.7c0.3-0.2,0.6-0.4,1-0.6
		c0.6,0.7,1.4,1.4,1.8,2.2c3.6,7.6,6.9,15.4,10.9,22.9C601.2,530.9,604.5,535.1,609.9,537.4z M487.8,506.5c-0.2-0.1-0.3-0.1-0.5-0.2
		c-5.1,6.1-9.9,12.4-15.3,18.1c-5.4,5.6-9.2,13.1-17,16.4c0-1.3,0.4-2.3,1.1-3c4.5-4.6,9.2-8.9,13.5-13.7
		c4.7-5.3,9.1-10.9,13.3-16.6c3.5-4.8,6.6-10,9.7-15.1c0.4-0.6,0.5-1.8,0.1-2.3c-0.6-0.6-1.6-0.8-2.5-1.2c-0.3,0.7-0.5,1.4-0.8,2
		c-1.2,2.6-1.7,6-3.6,7.6c-5.2,4.3-11.2,7.5-16.5,11.6c-8.6,6.6-13.6,15.8-16.9,25.9c-0.5,1.5-0.2,3.8,0.6,5
		c1.4,1.9,3.8,2.1,5.9,0.6c3.7-2.7,7.8-5,10.7-8.3c4.7-5.3,8.7-11.3,12.8-17.2C484.4,513.1,486,509.7,487.8,506.5z M510.7,506.4
		c-2.4-1.9-3.8-3-5.3-4.2c-10.2,9.8-17.4,21.2-21.7,34.4c-0.8,2.4-1.3,5-1.5,7.5c-0.1,1.4,0.5,3.8,1.4,4.2c1.5,0.6,3.9,0.5,5.1-0.4
		c2.5-1.9,5.1-4.2,6.4-6.9C500.6,529.6,505.5,518,510.7,506.4z M594.2,717.3c0.4-0.2,0.9-0.4,1.3-0.5c9-16.5,3.2-31.7-4-46.5
		c-6.1,1.2-6.3,5.6-6.4,9.9c-0.3,8.7,0.1,17.3,3.1,25.5C589.6,709.8,592.2,713.5,594.2,717.3z M611.8,671.9
		c0.6,13.9,2.8,26.3,10.7,36.9c0.7,1,2.3,2.6,2.7,2.4c1.4-0.7,3.3-1.9,3.6-3.2c0.7-3.4,1.1-7,0.6-10.4c-1.4-9.8-5.8-18.5-11.7-26.3
		c-1.1-1.5-3.1-2.4-4.6-3.6C612.5,669.4,612,671.1,611.8,671.9z M561.1,672.9c-1.3,1.6-2.3,2.3-2.6,3.2c-1.7,4.8-3.6,9.7-4.7,14.6
		c-1.8,8.2-3.3,16.5,1.1,24.4c1,1.7,3,3.1,4.8,3.9c0.5,0.2,2.8-2.2,3.2-3.7c1-3.9,1.4-7.9,2.2-11.9
		C567.1,693.1,564.2,683.6,561.1,672.9z M585.7,545.9c0-2,0.2-3.5,0-5c-1.9-12.6-6.9-24-13.1-35c-1.1-1.9-2.3-3.8-3.8-5.4
		c-0.9-0.9-2.6-1-3.9-1.5c-0.4,1.5-1.4,3.1-1.1,4.4c1.8,6.8,3.8,13.5,6,20.1c1.3,4.1,3.5,7.9,4.6,12
		C575.8,541.2,579.3,544.3,585.7,545.9z M553.9,360.5c-1.2,10.5-8.1,13.7-17.8,14.6c2.6,2,4.2,3.6,6.2,4.7c3.8,2.1,4.7,4.2,2.9,8.2
		c-0.4,0.9-0.7,1.7-1.4,3.4c3.7-2.1,6.5-3.9,9.5-5.5c0.9-0.5,2.2-0.8,3.1-0.4c3.6,1.3,7.1,2.9,11.1,4.6c-1.5-3.7-2.8-6.7-3.8-9.8
		c-0.3-0.9,0.3-2.3,0.9-3.2c1.9-2.6,4.1-5,6-7.3c-3.7,0-7.5,1.1-10-0.3C558,368.1,556.6,364.3,553.9,360.5z M617.1,528.2
		c0.6,5.4,3.7,8.1,7.7,10c3.2,1.5,5.2,0.2,4.8-3.2c-0.3-2.7-0.9-5.7-2.2-8.1c-5-8.7-9.6-17.7-17.4-24.5c-4.1-3.5-7.7-7.5-11.5-11.3
		c-0.6-0.6-1-1.8-0.8-2.5c0.7-2.9-0.7-4.4-3.6-5.5c-0.2,1-0.7,2-0.5,2.8c1,3.4,1.5,7.4,3.6,9.9c7.6,8.8,10.9,20.5,20.2,28
		c3.2,2.6,6.3,5.4,9.4,8.2c0.7,0.7,1,1.8,1.5,2.8c-0.3,0.2-0.6,0.4-0.9,0.6C624.1,533.1,620.7,530.8,617.1,528.2z M503,682
		c0.1-2.1,0.5-4.2,0.2-6.3c-0.2-1.7-0.7-3.6-1.8-4.9c-1.3-1.7-3-2.3-3.7,0.9c-1.4,6.3-3.1,12.5-4.6,18.8c-1.8,7.8-2.4,15.6-0.3,23.4
		c0.4,1.4,1.9,2.4,2.8,3.6c1-1.2,2.6-2.2,3-3.6C501.2,703.5,503.1,692.8,503,682z M615.4,491.1c-0.2,0.5-0.3,0.8-0.3,1
		c0.3,0.9,0.6,1.9,1,2.8c4.3,11.1,11.5,20.1,20.8,27.2c5.4,4.2,11.6,7.2,17.7,10.4c1.1,0.6,3.1-0.4,4.6-0.7c-0.6-1.3-0.9-3.1-1.9-4
		c-4-3.5-8.2-6.7-12.3-10.1C634.8,509.3,623.1,502.6,615.4,491.1z M534.5,341.7c0,10.3,0,19.5,0,28.6c10.4-1.3,12.6-3.2,16.6-13.9
		c-2.7-2.6-4.3-5.3-2.1-9.3c0.6-1.1-1-3.6-2-5c-0.4-0.5-2.2-0.3-3.3,0c-1.4,0.4-2.6,1.2-3.1,1.5C538.5,343,537,342.5,534.5,341.7z
		 M662.6,706.4c-6.4-3.2-8.8-9.6-10.8-15.7c-2.1-6.3-2.9-13.1-4.2-19.2c-0.9,12.9,1.4,27,11.7,36.9c1.4,1.3,3.6,1.7,5.5,2.5
		c0.4-0.3,0.8-0.7,1.2-1c-0.3-2.5-0.3-5.1-1-7.4c-4.2-14.1-8.6-28.2-13-42.2c-0.2-0.7-0.6-1.4-0.9-2.1c-0.3,0.1-0.6,0.2-0.9,0.3
		C649.8,675.6,651.1,692.3,662.6,706.4z M514.8,365.7c-0.3,0-0.7,0-1,0c-1.6,2.1-3.4,4.2-4.8,6.5c-2.1,3.5-4.7,5.6-9,4.3
		c-0.9-0.3-2,0.2-4.3,0.4c7.4,3.3,5.7,7.3,1.4,11.7c11.6-2.5,9.8-3.9,16.8,4.7c0.4,0.5,0.7,1.1,1.1,1.5c1,0.9,2.1,1.7,3.1,2.6
		c0.1-3.6-0.2-6.8-1.1-9.8c-1-3.3-0.8-5.2,3.2-5.4c1.6-0.1,3.2-1,5.9-1.8C518.8,377.5,513.4,374,514.8,365.7z M511.6,715.9
		c0.5,0.1,1,0.3,1.5,0.4c1.5-1.7,3.5-3.3,4.3-5.3c4-9.5,7.7-19.1,11.3-28.7c0.7-1.8,0.1-4,0.1-6.5c1.6-0.8,2.3-2.1-0.3-4.1
		c-1.4,1.9-2.7,3.7-3.9,5.5c-6.8,10-11.9,20.6-13.4,32.8C510.9,712,511.4,714,511.6,715.9z M462.5,500.6c-0.3-0.2-0.6-0.3-0.9-0.5
		c4.3-5.1,5.1-11.2,5.9-17.3c-1.2,1.2-1.5,2.8-2.1,4.1c-4.2,8.8-8.1,17.9-13,26.4c-3.9,6.8-9.2,12.7-13.8,19.1
		c-1.3,1.9-2.3,4-3.6,6.3c5.3,0.6,12.4-4.1,14.8-8.7c2.6-5,5.6-9.8,8.1-14.9c2.5-5.1,4.7-10.4,7.5-16.5
		C463.7,499.8,463.1,500.2,462.5,500.6z M529,342c-1.3-0.2-2.5-0.7-3.6-0.5c-1.3,0.2-2.9,0.8-3.5,1.7c-0.5,0.7,0,2.5,0.6,3.4
		c1.9,2.8,1.3,5.5-0.5,7.9c-0.8,1-2.6,2-3.8,1.8c-1.4-0.2-3.5-1.6-3.7-2.8c-0.5-2.7-0.2-5.6-0.2-8.9c-2,0.2,0.1-5.6-4.5-4.5
		c-0.4,2.4-1.5,5-1,7.3c1,4.2,2.9,8.2,4,11.2c2,0.2,4.6,0,4.7,0.4c1.1,4.1,4.4,4,8.6,4.1c-1.7,3.4-3.1,6.1-4.6,9
		c2,1.2,3.8,2.2,6.3,3.7c0.4-2.9,1.1-5.3,1.1-7.8C529,359.5,529,351,529,342z M464.9,715.2c-3.8-17.9,0.6-33.5,11.9-47.7
		c-4.1,0-7.6,0-10.7,0c-0.3,16.6-6.2,30.7-16.1,43.2C454.7,712.2,459.4,713.6,464.9,715.2z M636,663.3c-5,15-6.1,29.6,1.6,44.3
		c0.7-0.9,2.1-2,2.4-3.3c0.8-3.3,1.7-6.8,1.5-10.1c-0.3-5.9-1.1-11.8-2.1-17.6C638.6,672.1,637.1,667.7,636,663.3z M546.5,693.8
		c2.1-6.7,4.1-13.2,6.1-19.7c-4.9-3.4-10.7-4.4-16-2.7c-0.3,4.7-0.6,9.3-0.9,14c0,0.7,0.1,1.7,0.6,1.9
		C539.6,689.5,543,691.6,546.5,693.8z M598.6,377c0.3,0.2,0.6,0.4,0.8,0.5c1.6-1.7,3.2-3.4,4.9-5.1c2-2,4-2.7,6.4-0.5
		c1.2,1.1,2.6,2,4.7,3.7c-0.7-2.4-0.7-3.9-1.4-4.9c-1.9-2.8-0.7-4.7,1.4-6.6c1.6-1.5,3.1-3.2,5.4-5.6c-3,0.2-4.7,0.4-6.4,0.3
		c-1.1-0.1-2.4-0.4-3.1-1.1c-2.1-2.4-3.9-5-5.4-7c-2.8,5.2-5.6,10.1-8.4,15.4c1,0.7,2.3,1.8,3.7,2.8
		C600.4,371.5,599.5,374.2,598.6,377z M537.1,311.4c8.4-0.4,16.3-0.8,23.8-1.1c1.4-6.2,2.7-11.9,3.9-17.1c-8,5.1-17,9.8-27.7,10.3
		c0,1.8,0,3,0,4.2C537.1,308.8,537.1,309.7,537.1,311.4z M593.5,380.2c0.2-0.2,0.5-0.3,0.7-0.5c-0.7-1.7-1.1-3.5-2.2-4.9
		c-3.2-4.5-4.1-8.6,1.1-12.3c0.4-0.3,0.6-1,1.1-1.7c-0.6,0-1,0-1.3,0.1c-3.6,1.6-6.5,1.4-8.6-2.7c-1.1-2.1-3.3-3.7-5-5.5
		c-0.4-0.1-0.8-0.2-1.1-0.3c1.8,9.1-4.4,10.3-10.7,11.3c0.2,0.4,0.4,0.8,0.6,1.2c3-0.5,6.1-1.1,9.3-1.6c2.2,6.2,0.6,12.6,0.5,19
		c1.4-1.8,2.5-3.6,3.2-5.5c1-2.8,2.8-2.5,4.6-1.4C588.4,376.9,591,378.6,593.5,380.2z M467.1,385.2c3.9-1.7,7-2.9,10-4.2
		c2.1-0.9,3-0.4,3.8,1.7c0.9,2.1,2.4,4,3.6,6c0.7-3.3,0.5-6.2,0.8-9.1c0.3-2.7,1.1-5.4,1.7-8.5c2.6,0,5.3,0,8,0
		c-1.5-1.4-2.9-2.3-4.5-2.9c-5.5-2.4-5.5-2.3-5.3-8.5c0-0.1-0.3-0.3-0.6-0.5c-3.9,3.5-4.9,12-13.7,7.3c1.2,2.2,2.1,3.7,3.1,5
		c1.6,2,1.9,3.5-0.4,5.6C471.2,379.1,469.5,382,467.1,385.2z M460.4,671c-0.4-0.1-0.7-0.2-1.1-0.3c-9.3,7.6-15.4,17.2-18.5,28.8
		c-0.2,0.9,0.4,2.8,1.1,3.1c1.3,0.5,3.1,0.6,4.3,0.1c1.2-0.5,2.3-1.9,2.9-3.2c2.9-5.7,5.8-11.3,8.3-17.2
		C459,678.7,459.5,674.7,460.4,671z M638,718c-0.5-0.2-0.9-0.4-1.4-0.5c0.4,16.1,0.9,32.2,1.3,48.3c0.3,0,0.6,0,0.9,0
		c2.7-20,5.4-40,8.2-60.4c-1,2.8-1.4,5.6-2.9,7.7C642.5,715.1,640,716.4,638,718z M481.9,670.6c-6.1,4.2-12.5,33.2-9.1,40.5
		C479.5,707.4,485.3,681.7,481.9,670.6z M454.6,665.1c-0.3-0.3-0.6-0.5-1-0.8c-1,0.7-2.3,1.2-3.1,2.1c-5.1,5.3-10.1,10.7-15.3,16
		c-4.7,4.8-7.3,10.7-9,17.1c-0.4,1.6-0.2,3.8,1.5,3c2.8-1.2,6.2-3.1,7.2-5.5c3.9-9.1,8.7-17.5,15.4-24.9
		C452.3,670.2,453.2,667.5,454.6,665.1z M490.8,364.9c0.4-0.1,0.8-0.3,1.2-0.4c0-1.9,0-3.7,0-5.9c2.1,0,4.3,0.2,6.5-0.1
		c1.1-0.1,2.6-0.8,3.1-1.7c1.5-3.1,3.3-6.3,3.5-9.6c0.2-2.7-1.1-6.2-3-8.1c-1.4-1.5-4.7-1.1-7.5-1.5c0.5,5.2,0.3,9.8-3.8,13.3
		c-0.3,0.3-0.4,0.9-0.5,1.3c-0.3,3.4-0.6,6.9-0.7,10.3C489.7,363.3,490.4,364.1,490.8,364.9z M502.9,321.8c-0.1,0.2-0.1,0.3-0.2,0.5
		c2.6,0,5.2,0.1,7.7,0c15.7-0.5,31.5-1.1,47.2-1.6c12.8-0.4,25.6-0.3,38.1-3.4c1.2-0.3,2.3-1.1,3.4-1.6c-0.1-0.2-0.3-0.4-0.4-0.6
		C566.8,317.3,534.8,319.6,502.9,321.8z M561,442c0-7.4,0-14.5,0-21.6c0-8.1,0-16.2-0.2-24.3c0-1.8,0.3-4.1-2.6-4.3
		c-0.2,0.3-0.4,0.5-0.4,0.7c-0.5,14.9-1.2,29.9-1.6,44.9C556.1,442.6,556.3,442.6,561,442z M652,714.1c-3.5,22.4-9,43.9-7.3,66.3
		c1.9-10.2,2.6-20.7,4.5-30.9c1.9-10.5,4.9-20.8,7.4-31.5C655.4,717.1,654,715.9,652,714.1z M664.8,522
		c-11.8-10.3-23.2-20.1-31.3-33C632.2,498.2,650,524.4,664.8,522z M501,493.7c3-3.4,5.7-6.4,8.1-9.2c-11.6-1.3-23.8-2.7-35.5-4
		c-0.4,2.9-0.8,6-1.3,9.2c3.8,0.6,7.4,1.1,11,1.6c1.4-4.6,4.1-6.9,7.9-6.9C497,484.2,498.3,485.4,501,493.7z M601.3,464.7
		c-12.7-2.3-25.5-4.2-36.6-11.9c2.4,7,7.5,11.3,13.4,15c0.4,0.2,1,0.2,1.4,0.2C586.8,466.9,594,465.8,601.3,464.7z M562.1,508.3
		c-1.8,9.5,1.4,18.2,5,26.3c2.6,5.8,7,10.9,11.2,15.7c2.5,2.9,4.6,2,6.1-1.9c-6.9-1.6-10.7-5.8-12.6-12.7
		C569.2,526.5,565.4,517.6,562.1,508.3z M557,484.4c-6.8,0-14.4,0-21.4,0c1.7,3.1,3.1,5.9,4.8,9c4-0.5,8.4-1,11.6-1.4
		C554.1,488.7,555.7,486.3,557,484.4z M522.6,334.3c-0.1,0.2-0.3,0.5-0.4,0.7c0.7,0.4,1.4,1.2,2.1,1.2c6.9,0.3,14,1.8,20.5,0.4
		c5.3-1.2,9.6-1.6,14.7,0.3c2.8,1.1,6.3,0,9.5,0.1c3.3,0.1,4-1.5,3.5-4.1C555.7,333.4,539.2,333.9,522.6,334.3z M595.9,478.7
		c1.7,1.2,3.8,2.1,4.6,3.6c1.4,2.8,3.1,2.5,5.4,1.9c0-1.2-0.3-2.3,0.1-3c0.7-1.4,1.7-3,3-3.7c0.6-0.3,2.2,1.1,3.4,1.6
		c0.9,0.4,1.9,0.8,2.8,0.6c2-0.4,3.8-1.2,5.8-1.8c1.3-1.7,3.1-2.9,4.7-4.2c1-0.8,1.8-1.9,2.6-2.8
		C617.2,473.5,606.7,476.1,595.9,478.7z M596.8,616.7c0.1-0.4,0.2-0.7,0.3-1.1c-12.2-0.8-21.6-7-30.3-15c2.9,5.1,6.2,9.6,9.7,13.9
		c1.1,1.3,2.9,2.8,4.5,2.9C586.3,617.6,591.5,617,596.8,616.7z M564.9,341.1c-1.8,1-2.7,1.6-3.6,2.1c-0.8,0.4-1.7,0.7-2.5,1
		c-0.2-0.8-0.5-1.6-0.7-2.4c-0.3,0-0.6-0.1-0.9-0.1c-0.2,1.9-0.6,3.8-0.6,5.7c0,1.4,0.6,2.9,0.4,4.3c-0.6,4.4,0.9,7.6,5.7,10.2
		C563.3,355.2,564,348.7,564.9,341.1z M532.2,764.8c-0.7,5.8,16.7,19.3,26.2,20.4c0.1-2.1,0.9-4.1-2.3-4.8
		c-5.9-1.3-10.8-4.6-15.2-8.6C538.2,769.3,535.2,767.2,532.2,764.8z M628.2,680.2c-0.8-5.6,5.2-11.4-0.1-17.2
		c-3.3,1.1-6.5,2.1-9.6,3.1C621.9,671,625,675.6,628.2,680.2z M622.8,718.1c2.3,10.1,4.4,19.9,6.6,29.6c0.1-0.1,0.2-0.1,0.3-0.2
		c0-9.1,0-18.3,0-27.3C627.4,719.5,625.4,718.9,622.8,718.1z M570.6,671.5c3.2,5.2,5.9,9.7,9.2,15c0.7-6.1,1.2-11.1,1.8-16.7
		C577.7,670.5,574.5,671,570.6,671.5z M616.7,486.2c4.9,5.4,9.3,10.4,13.7,15.3c0.3-0.2,0.5-0.4,0.8-0.6c-2.7-5.9-3.1-12.8-9-17.3
		C620.8,484.2,619.3,485,616.7,486.2z M589.8,324.6c-19.1,1.1-39.9,2.2-60.7,3.4C550.1,329.6,570.9,328.4,589.8,324.6z M509.8,722.9
		c1.6-1.5,3.1-2.9,4.5-4.2c-2.9,1.3-5-0.2-5.2-2.6c-0.3-4-0.2-8.3,0.8-12.1c2.4-9.3,6.9-17.8,12.3-25.8c1.1-1.6,1.9-3.4,2.8-5.1
		c-0.3-0.2-0.5-0.3-0.8-0.5c-1.3,1.9-2.7,3.7-3.9,5.6c-6,9.2-10.5,19.2-12.5,30C506.9,712.7,506.2,718,509.8,722.9z M482.6,696.7
		c-0.4,1.7-0.8,3.3-1.1,5c-0.8,4.3-3,7.7-6,10.8c-2,2-4.6,1.5-4.9-1.1c-0.4-3.3-0.7-6.6-0.4-9.9c0.5-4.7,1.6-9.3,2.5-14
		c-1.3,2.1-2.2,4.4-2.5,6.7c-0.6,5.8-1.2,11.7-1.2,17.5c0,1.5,1.7,3.9,3.1,4.4c1.4,0.4,3.7-0.7,5-1.9
		C482.2,709.6,482.9,703.3,482.6,696.7z M562.7,483.3c5.7,8.2,5.7,8.2,11.9,6.4c0.5-2.4,1-4.8,1.6-7.4
		C571.6,482.7,567.2,483,562.7,483.3z M561.5,554.5c-0.5,0-0.9,0-1.4,0c0,10.9,0,21.8,0,32.9c0.6-0.1,1.7-0.2,3-0.3
		C562.6,576,562,565.3,561.5,554.5z M507.2,356.2c-0.4-0.3-0.8-0.6-1.3-0.9c0.9,7.5-3,8-8.2,7c2.1,2.7,4.3,5.5,6.8,8.7
		c2-2.5,3.8-4.6,5.1-6.2C508.7,361.6,507.9,358.9,507.2,356.2z M517.3,535.8c-2.6-9.4-2-18.3-1.1-27.1c-2.1,9.6-4.1,19.2-6.2,28.9
		C512.3,537,514.7,536.4,517.3,535.8z M521,494.3c0.3,0,1.4-0.1,2.9-0.2c-1-4.7,1.9-7.2,6.3-9.4c-5.8,0-10.5,0-14.4,0
		C517.4,487.7,519,490.6,521,494.3z M575.9,239.8c-0.1-0.3-0.1-0.6-0.2-0.9c-9.6,2.7-19.1,5.3-28.7,8c0.2,0.6,0.4,1.2,0.5,1.8
		C557.5,247.3,567.1,245,575.9,239.8z M587.1,350.8c3.5,1.5,6.8,4.2,9.1,3.5c2.2-0.7,3.2-4.9,5-7.9c-3-0.2-4.9-0.4-6.4-0.5
		C592.6,347.2,590.5,348.6,587.1,350.8z M535.3,691.3c-0.4,0.1-0.8,0.2-1.2,0.3c0.5,1.4,0.8,2.9,1.6,4c1.2,1.7,2.8,3.1,4.3,4.5
		c2,2,4.2,3.9,6.2,5.8c0.3-0.2,0.6-0.4,0.9-0.6c-0.4-2.2-0.1-5.2-1.5-6.5C542.6,695.9,538.8,693.8,535.3,691.3z M475.2,548.6
		c1.2-5.5,2.3-10.5,3.5-15.9C469.6,539.6,468.4,544.3,475.2,548.6z M561.2,721.9c0.1,0.4,0.3,0.9,0.4,1.3c1-0.5,2.3-0.8,3.1-1.6
		c5-5,5.8-19,3.6-25.4C566.8,704.9,568.2,714.6,561.2,721.9z M572,468.5c-4.4-5.2-8.6-10.2-13.6-16c1.5,6,4,10.4,7.2,14.5
		C567.3,469,569.3,469.3,572,468.5z M507.2,672.7c0.5,5.1,0.9,9.4,1.4,14.3c2-2.9,3.8-5.1,5.1-7.5c0.4-0.7,0.1-2.5-0.6-3
		C511.5,675.1,509.6,674.2,507.2,672.7z M577.6,494.3c-3.1,0.2-5.5,0.3-8.6,0.5c1.9,2.2,3.5,3.9,4.9,5.7c1.4,1.8,2.7,3.7,4,5.6
		c0.2-0.1,0.4-0.2,0.6-0.4C578.2,502,577.9,498.3,577.6,494.3z M494.5,668.2c-1.6-0.1-2.7-0.2-3.8-0.2c-4.4,0.1-5.4,1.4-3.9,5.6
		c0.5,1.5,1.1,3.1,1.8,5.3C490.7,675,492.5,671.8,494.5,668.2z M489.4,391.1c2.8-3.1,4.7-5.2,6.2-7c-2.4-2.5-4.5-4.6-6.2-6.4
		C489.4,381.6,489.4,385.8,489.4,391.1z M583.2,331.8c-0.2,0.5-0.5,0.9-0.7,1.4c1,0.6,2,1.7,2.9,1.6c3.9-0.3,7.7-1,11.5-1.6
		c0.1-0.4,0.3-0.8,0.4-1.3c-1.1-0.5-2.2-1.6-3.3-1.5C590.4,330.6,586.8,331.3,583.2,331.8z M503.6,529.7
		c-4.9,8.4-6.6,18.2-16.1,22.7C492.8,555.2,500.9,543.7,503.6,529.7z M574.2,358.3c-1.6-3.6-2.9-6.7-4.3-9.9
		c-0.4,0.1-0.8,0.3-1.2,0.4c-0.2,3.6-0.5,7.1-0.8,11.2C570.1,359.4,571.5,359.1,574.2,358.3z M646.4,658.4c-0.3-0.6-0.6-1.2-0.9-1.7
		c-1.7,1.1-4.8,2.3-4.8,3.4c0,3.4,1.2,6.9,1.9,10.3c0.4-0.1,0.7-0.1,1.1-0.2c0.3-3.6,1.8-7.1,0.2-10.8
		C644.5,659.3,645.5,658.8,646.4,658.4z M597.9,718.3c0.1,0.3,0.1,0.7,0.2,1c1.1-0.8,2.6-1.4,3.1-2.5c0.9-1.8,1.3-4,1.6-6
		c0.6-4.5,1.3-9-0.8-13.6c-0.2,3.9,0,7.4-0.7,10.8C600.6,711.6,599.1,714.9,597.9,718.3z M581.6,340.2c0.4,2.5,0.7,4.5,1,6.4
		c4,0.8,5.2-0.2,4.9-7C585.6,339.8,583.7,340,581.6,340.2z M593.7,535.2c-0.3,0.1-0.5,0.3-0.8,0.4c1.5,3.1,2.8,6.3,4.5,9.3
		c0.5,0.9,2.1,1.1,3.2,1.6c0-1.3,0.6-3-0.1-3.8C598.5,540,596,537.7,593.7,535.2z M520.7,514c1.2-4,2.5-8.3,3.9-13
		c-2.2,0.2-4.1,0.3-5.4,0.4C519.7,505.7,520.2,509.8,520.7,514z M478.6,719.3c2.3,0.6,4.6,1.1,7.2,1.8c-0.7-3.2-1.3-6-2.1-9.4
		C481.8,714.5,480.3,716.8,478.6,719.3z M611.8,664.4c1-3,3.2-5.3,0.5-7.8c-0.7-0.6-3.2-0.4-3.5,0.2
		C607.1,659.9,608.9,662,611.8,664.4z M440.1,704.7c-0.2,3.2,2.9,5.5,5.3,3.9c3.7-2.5,6.8-5.8,8.1-11.1
		C449.3,701.3,448.3,710,440.1,704.7z M587,666.9c1.7-2.1,3.5-4.1,1-6.2c-0.6-0.6-3.2-0.1-3.8,0.8
		C581.7,664.6,584.9,665.4,587,666.9z M530.9,684.1c-2.6,6.8-5.1,13.6-7.7,20.3C527.2,698.2,530.8,691.7,530.9,684.1z M634.4,653.7
		c-0.4,0-0.9,0-1.3,0.1c-0.5,0.8-1.5,1.9-1.3,2.4c0.7,1.7,1.9,3.3,2.9,4.9c0.6-0.7,1.9-1.6,1.8-2.1
		C636.1,657.1,635.2,655.4,634.4,653.7z M469.5,502.1c3.1-2.1,5.5-3.7,8.5-5.7c-2.7-0.4-4.7-0.7-6.7-1
		C470.7,497.6,470.2,499.4,469.5,502.1z M501.9,665.7c2.1-2.2,3.9-4.2,1.3-6.9C498.9,660.7,498.7,661.3,501.9,665.7z M532,498.8
		c1.2-2,2.1-2.9,2.1-3.8c0.1-1.4-0.4-2.9-0.9-4.2c-0.1-0.2-1.7-0.3-1.8,0c-0.5,1.1-1,2.4-1,3.5C530.6,495.5,531.3,496.7,532,498.8z
		 M498.1,332.5c5.6,1.1,11.1,3.9,17,2.7c0-0.4,0.1-0.8,0.1-1.1C509.5,333.6,503.8,333,498.1,332.5z M659.3,658.2
		c-1.6-0.8-2.9-1.4-5-2.5c1.2,3.7,2.1,6.6,3.2,10.2C658.2,663,658.7,660.8,659.3,658.2z M559.8,495.4c0.8,0,1.6,0.1,2.4,0.1
		c0.1-1.9,0.3-3.8,0.3-5.7c0-0.1-1.9-0.2-2.9-0.3C559.7,491.4,559.7,493.4,559.8,495.4z M550.8,724.4c-0.3,0-0.7,0.1-1,0.1
		c-1.8,4.7-1.4,8.2,1.6,10.4C551.2,731.2,551,727.8,550.8,724.4z M562.4,665.8c-1.3-0.9-2.4-1.9-2.6-1.7c-1.2,0.9-2.5,1.9-3.3,3.2
		c-0.2,0.4,1,1.6,1.5,2.5C559.3,668.6,560.6,667.4,562.4,665.8z M627.4,478.2c-0.4,0.2-0.8,0.5-1.2,0.7c-0.1,3.4,1.2,5.3,6.5,8.3
		C630.6,483.7,629,480.9,627.4,478.2z M508.3,495.9c0.5,0.4,1.1,0.8,1.6,1.3c1.4-1.2,2.9-2.4,4.3-3.6c-1.2-0.6-3.1-2-3.6-1.6
		C509.5,492.8,509.1,494.6,508.3,495.9z M588.6,486.7c0.6-2.7,1.1-5,1.7-7.7c-1.9,0.4-3.5,0.7-5.3,1.1
		C586.2,482.4,587.3,484.3,588.6,486.7z M605.8,489.2c1.5,2.1,3.1,4.4,4.7,6.6C609.9,489.1,608.9,488.1,605.8,489.2z M528,666.5
		c0.6-0.1,1.1-0.1,1.7-0.2c1.7-1.5,1.1-3.3-0.1-4.8c-0.2-0.3-2.1,0.2-2.1,0.2C527.6,663.3,527.8,664.9,528,666.5z M492.3,341
		c-1.9,0.7-3.1,1.1-4.7,1.7c0.6,1.5,1.1,2.8,1.6,4.1c0.4,0,0.7,0,1.1-0.1C490.9,345,491.5,343.3,492.3,341z M499.3,502.3
		c0.3,0.1,0.5,0.3,0.8,0.4c1.2-1.4,2.4-2.7,3.6-4.1c-0.2-0.3-0.4-0.6-0.7-0.9c-1.2,0.1-2.5,0.2-3.7,0.3
		C499.3,499.6,499.3,500.9,499.3,502.3z M545.5,448.1c-0.1,0.2-0.2,0.4-0.3,0.6c5.4,0,10.8,0,16.2,0c0-0.2,0-0.4,0-0.6
		C556.1,448.1,550.8,448.1,545.5,448.1z M520.6,670.1c-2.6-0.2-4.6-0.4-7.5-0.6C515.8,671.9,517.5,674.3,520.6,670.1z M553.4,758.9
		c-0.3,0-0.6,0-0.9,0c0,3.5,0,7,0,10.6c0.3,0,0.6,0,0.9,0C553.4,765.9,553.4,762.4,553.4,758.9z M581.5,485.4
		c-1.1,1.6-2.1,2.3-2,2.9c0.2,1,1.1,1.9,1.7,2.9c0.6-0.6,1.6-1.2,1.6-1.8C582.8,488.4,582.1,487.4,581.5,485.4z M496.3,724.7
		c2.4,0.8,4.2,1.4,6.2,2.1c-0.9-1.9-1.6-3.3-2.5-5.1C498.9,722.6,497.8,723.4,496.3,724.7z"/>
	<path d="M540.1,882.1c-2.3,0-5.3,0.8-6.8-0.2c-1.4-1-1.3-4.1-2-6.3c-2.1-6.3-4.5-12.5-6.3-18.8c-1.4-5-0.2-6,4.6-4.9
		c9.7,2.2,19.3,1.8,28.7-1.7c3.5-1.3,7.4,0.8,8.2,4.3c0.8,3.5,1.2,6.8-0.5,10.4c-1.6,3.4-1.9,7.4-3.5,10.8c-0.8,1.9-2.8,4.2-4.6,4.5
		c-5.9,1.2-11.9,1.6-17.9,2.3C540.1,882.4,540.1,882.2,540.1,882.1z"/>
	<path d="M313.7,829.6c-0.8,2.8-1.5,6.3-2.7,9.6c-1.3,3.3-4.2,4.1-7.1,1.9c-2.1-1.6-4.3-3.5-5.5-5.8c-6.1-11.2-8.6-23.2-8.1-35.9
		c0.2-4.1,2.3-5.2,5.4-2.6C305.7,805.1,311.5,816,313.7,829.6z M303.7,829.3c-0.5-9.3-5.2-17-9.5-24.9
		C294.8,813.7,297.8,822,303.7,829.3z"/>
	<path d="M565.9,843.5c-0.6-12.1-3-24.1-3.2-36.3c0.5-0.1,1-0.2,1.5-0.3c0.8,2.3,1.8,4.6,2.4,7c1.8,7.5,3.4,15.1,5.3,22.6
		c0.8,2.9,2.1,5.7,3.4,8.4c1.2,2.6,0.9,4.9-0.9,6.8c-1.3,1.4-3.8,2.3-4.4-0.2c-1-4.3-4-4.4-7-4.2c-3,0.3-3.9-1.1-4.4-3.5
		c-2-9.7-4.2-19.4-6-29.2c-0.5-2.9-0.1-6.1-0.1-9.3c1.4-0.2,2.6-0.4,3.9-0.7C562.6,817,562.5,830.6,565.9,843.5z"/>
	<path d="M637.7,851.5c1,1.6,2.2,3,3,4.7c2.3,5.1,2,11.6,8.5,14.2c0.8,0.3,1.1,1.8,1.5,2.4c-3.3,2.1-6.3,4.1-9.4,6.1
		c0.1,0.6,0.3,1.2,0.4,1.8c2.8,0.1,5.6,0.6,8.3,0.3c3-0.3,5.9-1.6,9-2c2.1-0.3,4.2,0.4,6.3,0.6c1.1,0.1,2.2,0.5,3.2,0.2
		c7.5-1.9,15-3.8,20.8-9.5c1.2-1.2,2.7-1.9,4.1-2.9c0.4,0.3,0.8,0.5,1.2,0.8c-0.9,1.7-1.3,4-2.7,5.1c-3.3,2.9-6.9,5.4-10.6,7.8
		c-4.6,3-9.3,5.9-14.2,8.4c-3.7,1.9-7.3,1.2-10.5-1.8c-0.8-0.8-2.4-1-3.6-1c-3.3-0.1-6.6,0.1-9.9,0.1c-4.1,0-5.8-1.9-5.1-5.8
		c0.6-3.1,2-6.2,1.9-9.3c-0.1-4.4-1.3-8.7-2.1-13c-0.4-2.1-0.9-4.2-1.4-6.4C636.8,852,637.3,851.7,637.7,851.5z"/>
	<path d="M809.4,662.7c-0.6,7.9-4.6,14.3-7.7,21.1c-1.6,3.6-3.6,6.7-7.6,7.9c-1.5,0.5-3.2,0.6-4.7,0.8c-0.2-2.1-1-4.3-0.5-6.3
		c0.5-2,2.1-3.8,3.4-5.6c3.4-4.9,7.1-9.7,10.3-14.8c1.1-1.6,0.9-4,1.7-5.8c0.6-1.3,1.8-2.3,2.7-3.5c0.7,1.2,1.4,2.4,1.9,3.7
		C809.3,661.1,809.3,662,809.4,662.7z"/>
	<path d="M569.6,277.1c-5.8,4.6-11.4,9.6-17.6,13.7c-4.9,3.2-10.7,5.3-16.7,4.5c-1.9-0.3-4.6-1.7-5.1-3.2c-0.4-1.4,1.5-3.7,2.6-5.4
		c0.5-0.8,1.6-1.2,2.4-1.7c4.8-3.2,4.8-3.2,9.6,0.3c2.6,1.9,5.1,2.8,8,0.5c3.3-2.6,6.5-5.2,9.8-7.7c2-1.6,4.1-3.1,6.2-4.7
		c0.3,0.2,0.6,0.5,0.9,0.7c-0.1,1-0.1,2.1-0.2,3.1C569.5,277.2,569.6,277.1,569.6,277.1z"/>
	<path d="M343,787.8c-0.2,3.9-0.1,6.6-0.6,9.3c-0.2,1.1-1.3,2.2-2.3,2.7c-0.4,0.2-1.8-1.1-2.4-1.9c-3.8-5.6-1.9-11.8-1.5-17.8
		c0.1-1,2.1-2.5,3.4-2.7c0.7-0.1,2.4,1.7,2.6,2.9C342.8,783.1,342.8,786,343,787.8z"/>
	<path d="M811.9,670.7c1-5.6,1.9-10.6,2.9-15.6c0.2-0.8,0.5-1.9,1.1-2.2c1.6-0.9,3.3-1.5,5-2.2c0,1.7,0.2,3.4,0,5.1
		c-0.2,2.2-0.3,4.5-1.1,6.4c-1.6,3.6-3.6,7.1-5.6,10.5c-0.1,0.3-1.4,0.3-1.6,0.1C812.2,672,812,671,811.9,670.7z"/>
	<path d="M552.6,841c1.4,5.3-2.7,8.5-9.8,7.6C543.6,845.2,548.6,841.3,552.6,841z"/>
	<path d="M685.9,883.4c-0.2,0.6-0.2,1.7-0.6,2c-1.6,1-3.3,1.7-5,2.4c-0.1,0-1-1.1-1-1.7c0-0.5,0.7-1.3,1.3-1.5
		C682.2,884.1,683.8,883.9,685.9,883.4z"/>
	<path d="M706.9,671c-1.4,2.3-2.8,4.6-4.3,6.9c-2.3,3.4-4.7,6.6-6.8,10c-1.1,1.8-1.4,4.1-2.4,6.1c-4.1,7.9-8.2,15.9-12.6,23.7
		c-0.8,1.5-2.7,2.4-4.7,4.1c-0.2-1.4-0.6-2.4-0.4-3.1c3.7-10.1,8.2-19.9,15.1-28.4c4.1-5,7.5-10.6,11.3-15.9
		c1.1-1.6,2.5-2.9,3.7-4.4C706.2,670.3,706.5,670.7,706.9,671z"/>
	<path d="M782.1,631.5c0,1.4,0.3,2.3-0.1,3.1c-0.5,1.1-1.4,2.1-2.1,3.1c-0.7-0.8-1.8-1.6-2.2-2.6c-2.8-8.1-4.5-16.3-3.7-24.9
		c0.1-1.1-0.4-2.3-0.2-3.3c0.3-1,1.1-2.2,1.9-2.5c0.6-0.2,1.9,0.7,2.5,1.4c0.6,0.8,1,2,1.1,3.1C780.3,616.6,781.2,624.3,782.1,631.5
		z"/>
	<path d="M746.1,626.3c-7.1,6.7-13,14.5-20.6,20.7c-0.4-0.4-0.9-0.8-1.3-1.3c6.4-6.8,12.7-13.5,19.1-20.2c0.4-0.4,1.5,0,2.2,0
		C745.7,625.7,745.9,626,746.1,626.3z"/>
	<path d="M768.9,573.8c2.2-4,4.5-5.2,8.2-4.3C776.4,573.7,774.7,574.6,768.9,573.8z"/>
	<path d="M772.7,643.5c-4,2.6-7.4,4.7-11.3,7.2C762.4,646.7,768.2,642.9,772.7,643.5z"/>
	<path d="M796.7,629.9c2.1-1.9,3.9-3.1,6.4-2.2c0.6,0.2,0.7,1.7,1,2.7C801.4,630.2,799.3,630.1,796.7,629.9z"/>
	<path d="M309.2,762.5c-2.2,4.8-6.3,4.3-9.3,5.9c-0.2,0.1-1.2-0.7-1.2-1c0.1-0.6,0.5-1.5,0.9-1.7
		C302.5,764.6,305.5,763.7,309.2,762.5z"/>
	<path d="M513.6,747.9c-6.4-1.3-12.7-3-19.1-3.8c-17.7-2.3-35.4-4.7-53.2-6c-12.9-1-25.9-0.5-38.8-0.3c-5.1,0.1-10.3,1.1-15.4,1.5
		c-0.8,0.1-1.6-0.5-2.4-0.8c0.7-0.5,1.3-1.4,2-1.5c12.1-1.3,24.2-2.7,36.3-3.6c9.2-0.6,18.5-0.9,27.7-0.6c7.1,0.2,14.2,1.5,21.3,2.4
		c6.6,0.8,13.2,1.4,19.7,2.6c6.8,1.4,13.6,3.3,20.3,5.3c1.1,0.3,1.7,2.4,2.6,3.7C514.2,747.3,513.9,747.6,513.6,747.9z"/>
	<path d="M515.1,603.3c-7.1-9.7-14.1-19.3-21.2-29c0.4-0.3,0.8-0.6,1.2-0.9c9.1,8.2,16.1,17.9,21.6,28.7
		C516.1,602.6,515.6,602.9,515.1,603.3z"/>
	<path d="M552.7,396.2c-0.4,7.9-0.8,15.8-1.1,23.7c-0.2,0-0.4,0-0.6,0c0-7.9,0-15.8,0-23.8C551.6,396.2,552.2,396.2,552.7,396.2z"/>
	<path d="M549.9,430.8c0.2-2.8,0.3-5.6,0.5-8.4c0.3,0,0.7,0,1,0.1c0,2.8,0,5.6,0,8.5C550.9,430.9,550.4,430.8,549.9,430.8z"/>
	<path d="M545.8,354.2c-3.4,0.1-4.9,0-3.7-3c0.9-2.3,0.9-4.9,1.3-7.4c0.3,0,0.7-0.1,1-0.1C544.8,347,545.3,350.3,545.8,354.2z"/>
</g>
</svg>
